<?xml version="1.0" standalone="no"?>
<!DOCTYPE svg PUBLIC "-//W3C//DTD SVG 20010904//EN"
 "http://www.w3.org/TR/2001/REC-SVG-20010904/DTD/svg10.dtd">
<svg version="1.0" xmlns="http://www.w3.org/2000/svg"
 width="300.000000pt" height="240.000000pt" viewBox="0 0 300.000000 240.000000"
 preserveAspectRatio="xMidYMid meet">
<metadata>
Created by potrace 1.10, written by Peter Selinger 2001-2011
</metadata>
<g transform="translate(0.000000,240.000000) scale(0.050000,-0.050000)"
fill="#990000" stroke="none">
<path d="M2674 4779 c-2038 -213 -3194 -2032 -2229 -3506 1177 -1798 4437
-1639 5349 261 805 1680 -921 3475 -3120 3245z m606 -1181 l0 -462 55 13 c263
64 514 367 569 690 l24 142 230 -5 230 -6 -5 -107 c-31 -569 -466 -1061 -1078
-1215 -36 -9 -36 -487 0 -496 612 -154 1047 -646 1078 -1215 l5 -107 -230 -6
-230 -5 -24 142 c-55 323 -306 626 -569 690 l-55 13 0 -462 0 -462 -240 0
-240 0 0 460 c0 324 -7 460 -22 460 -213 0 -566 -429 -593 -720 l-11 -120
-237 0 -237 0 0 61 c0 519 416 1063 940 1228 l150 47 0 244 0 244 -150 47
c-524 165 -940 709 -940 1228 l0 61 237 0 237 0 11 -120 c27 -291 380 -720
593 -720 15 0 22 136 22 460 l0 460 240 0 240 0 0 -462z"/>
</g>
</svg>
