<svg xmlns="http://www.w3.org/2000/svg" viewBox="0 0 270.21 70.86">
  <title>Asset 1</title>
  <g id="Layer_2" data-name="Layer 2">
    <g id="aw">
      <g>
        <g>
          <path d="M207.43,37.07V65.42h2.28v-.68h21.92v.68h2.28V37.07Zm2.28,2h21.92V62.75H209.71Z"/>
          <path d="M213.92,58.91a21.31,21.31,0,0,1,3.88,2.53l1.34-1.31a22,22,0,0,0-3.88-2.53Z"/>
          <path d="M226.62,55.7V54.54H228l.4.64,1.7-.84a6.47,6.47,0,0,1-1.22-2.74h.39l-.05-8h-7.57V42.49h8.71V40.73h-8.71v-.9h-2.27v.9h-8.24v1.76h8.24v1.12h-7.37v8h7.38v1.18h-7.94v1.76h12.94V55.7H210.67v1.76h13.75v.81c0,1.51-.54,2.08-1.61,2.08H220L221.07,62H223c3.1,0,3.62-1.88,3.62-4.34v-.24h4V55.7Zm-7.2-5.86H214V48.37h5.44Zm0-3H214V45.37h5.44Zm2.27-1.46h5.67v1.46h-5.67Zm0,3h5.67v1.47h-5.67Zm0,4.41V51.6h5.19a10.62,10.62,0,0,0,.26,1.18Z"/>
        </g>
        <g>
          <path d="M134.78,40a32.86,32.86,0,0,0,4.82-.83V37s-3.84.94-12.33.94v2.37h1.21c.87,0,2.13,0,3.59-.09v4.67h-5.3V47h5.06a25.4,25.4,0,0,1-6.45,11.63l-.09.11,2,1,0,0A26,26,0,0,0,132.06,53V65.42h2.72V52.31a19.76,19.76,0,0,0,5.23,5.3l.07,0V55h0a14.84,14.84,0,0,1-5.18-8h5.2V44.85h-5.3Z"/>
          <path d="M141.29,60.12v3.54h2.51V62.48H151v1.18h2.51v-24H141.29Zm2.51-18H151v18h-7.2Z"/>
        </g>
        <g>
          <path d="M83.92,47.5l2.19,1.15a17.45,17.45,0,0,0,2.71-2.5V65.42h2.73V42.64a15.89,15.89,0,0,0,1.7-5.9H90.38A14.53,14.53,0,0,1,83.92,47.5"/>
          <path d="M95.33,65.42H97.9V64.25h11.87v1.17h2.57v-11h-17Zm2.57-8.73h11.87V62H97.9Z"/>
          <rect x="95.06" y="49.61" width="17.6" height="2.35"/>
          <rect x="95.06" y="44.87" width="17.6" height="2.35"/>
          <polygon points="105.1 37.76 102.37 36.33 102.37 40.07 93.67 40.07 93.67 42.46 114.05 42.46 114.05 40.07 105.1 40.07 105.1 37.76"/>
        </g>
        <g>
          <path d="M182.33,49.22h8.85V47.09h-8.85v-1.8h8.85V43.11h-8.85V41.33h9.38V39.19h-9.38V37.6l-2.58-1.34v2.93h-6.43a12,12,0,0,0,.39-2.37v0h-2.56v0a12.08,12.08,0,0,1-5.76,8.9l-.07,0L167.76,47a9.37,9.37,0,0,0,2.42-2.21V54h2.46v-.82h19.06V51h-9.38V49.22M179.75,51h-7.1V49.22h7.1Zm0-3.91h-7.1v-1.8h7.1Zm0-4h-7.1V41.33h7.1Z"/>
          <path d="M185.52,57.82h9.21V55.7H182.32V54h-2.58V55.7h-12.4v2.12h9.2c-2.4,2.23-6.82,3.25-9.8,3.81l1.08,2.08c4-.6,9.57-2.88,11.92-5.82v7.53h2.58V57.89c2.36,2.94,7.93,5.22,11.92,5.82l1.09-2.08c-3-.56-7.41-1.58-9.81-3.81"/>
        </g>
        <g>
          <path d="M246.52,18.24a5.22,5.22,0,0,1-5.52,5.4,5.28,5.28,0,0,1-5.51-5.4V6h-3.24V18.32c0,4.72,3.68,8.14,8.75,8.14s8.79-3.42,8.79-8.14V6h-3.27Z"/>
          <path d="M175.76,15.15v2.69h4.86v5a10.07,10.07,0,0,1-4,.83c-4.32,0-7.35-3.17-7.35-7.7s3-7.76,7.21-7.7a17.31,17.31,0,0,1,6.43,1.55V7.07a16,16,0,0,0-6.69-1.57C170.2,5.5,166,9.81,166,16s4.3,10.48,10.45,10.48a16.57,16.57,0,0,0,7.05-1.63l.26-.12V15.15Z"/>
          <path d="M218.05,5.67c-6,0-10.1,4.27-10.1,10.39s4.15,10.4,10.1,10.4,10.1-4.28,10.1-10.4S224,5.67,218.05,5.67m0,18c-4,0-6.74-3.12-6.74-7.58s2.77-7.58,6.74-7.58,6.76,3.12,6.76,7.58-2.78,7.58-6.76,7.58"/>
          <path d="M263.32,6.06h-7.69V26.11h3.19V19h4.5c4,0,6.89-2.72,6.89-6.46s-2.83-6.48-6.89-6.48M263,16.24h-4.16V8.82H263a3.75,3.75,0,0,1,4,3.72,3.7,3.7,0,0,1-4,3.7"/>
          <path d="M192.83,26.11V8.82h4.25a3.5,3.5,0,0,1,3.79,3.51c0,2.08-1.52,3.48-3.79,3.48h-2.71l7.12,10.3h3.71l-5.62-8a5.84,5.84,0,0,0,4.52-5.83c0-3.66-2.75-6.21-6.68-6.21h-7.79V26.11Z"/>
          <path d="M145.66,5.67c-5.95,0-10.1,4.27-10.1,10.39s4.15,10.4,10.1,10.4,10.1-4.28,10.1-10.4-4.15-10.39-10.1-10.39m0,18c-4,0-6.74-3.12-6.74-7.58s2.77-7.58,6.74-7.58,6.76,3.12,6.76,7.58-2.78,7.58-6.76,7.58"/>
          <rect x="103.88" y="6.06" width="3.18" height="20.05"/>
          <path d="M92.71,14.64h0l-.12,0,0,0C90.16,13.71,88.08,13,88.23,11c.12-1.59,1.75-2.56,4.08-2.46h0a17,17,0,0,1,5.38,1.3V7A16.84,16.84,0,0,0,92.6,5.72c-4.22-.31-7.34,1.76-7.58,5-.31,4.1,3.1,5.35,6.1,6.46,2.34.86,4.56,1.67,4.4,3.75-.13,1.74-1.87,2.74-4.42,2.55a19.93,19.93,0,0,1-6.48-1.82v2.78h0a18.72,18.72,0,0,0,6.44,1.84c4.29.32,7.46-1.79,7.71-5.11.31-4.17-3-5.46-6.06-6.55"/>
          <polygon points="127.66 6.06 127.66 21.06 116.85 6.06 116.85 6.06 113.67 6.06 113.67 26.11 116.85 26.11 116.85 11.11 127.66 26.11 130.83 26.11 130.83 6.06 127.66 6.06"/>
        </g>
        <path d="M35.43,0A35.43,35.43,0,1,0,70.86,35.43,35.43,35.43,0,0,0,35.43,0M49.68,38.31c11,19.37-8.62,26.49-13.54,28.76L16.5,57.45C32,47.1,27.73,43.13,21.33,31.47,15.61,21.05,17.07,11.6,36.14,3.8l18.22,9.51c-11.79,7.3-12.91,10.59-4.68,25" fill="#e1592a"/>
        <path d="M49.68,38.31c11,19.37-8.62,26.49-13.54,28.76L16.5,57.45C32,47.1,27.73,43.13,21.33,31.47,15.61,21.05,17.07,11.6,36.14,3.8l18.22,9.51c-11.79,7.3-12.91,10.59-4.68,25" fill="#fff"/>
      </g>
    </g>
  </g>
</svg>
